<svg width="1024" height="753" viewBox="0 0 1024 753" fill="none" xmlns="http://www.w3.org/2000/svg">
<g opacity="0.2" filter="url(#filter0_f_175_198)">
<ellipse cx="305.5" cy="40.5038" rx="670.5" ry="360.504" fill="#35875D"/>
</g>
<g opacity="0.6">
<path d="M712.93 -25.4169C714.356 -25.4169 715.436 -24.7938 716.17 -23.5476C716.916 -22.3151 717.29 -20.521 717.29 -18.1655C717.29 -15.81 716.916 -14.0091 716.17 -12.7629C715.436 -11.5167 714.356 -10.8936 712.93 -10.8936C711.517 -10.8936 710.437 -11.5167 709.69 -12.7629C708.943 -14.0091 708.57 -15.81 708.57 -18.1655C708.57 -20.5073 708.943 -22.3014 709.69 -23.5476C710.437 -24.7938 711.517 -25.4169 712.93 -25.4169ZM709.99 -18.1655C709.99 -16.4948 710.137 -15.1869 710.43 -14.242L714.87 -23.3422C714.403 -23.9858 713.756 -24.3077 712.93 -24.3077C712.01 -24.3077 711.29 -23.8009 710.77 -22.7875C710.25 -21.7878 709.99 -20.2471 709.99 -18.1655ZM712.93 -12.0234C713.863 -12.0234 714.59 -12.5233 715.11 -13.523C715.63 -14.5364 715.89 -16.0839 715.89 -18.1655C715.89 -19.9322 715.723 -21.3016 715.39 -22.274L710.95 -13.0916C711.43 -12.3795 712.09 -12.0234 712.93 -12.0234Z" fill="url(#paint0_linear_175_198)"/>
<path d="M714.13 11.2891H717.07V12.3778H709.45V11.2891H712.85V-0.255635L709.61 1.73696L709.05 0.812559L713.05 -1.73468H714.13V11.2891Z" fill="url(#paint1_linear_175_198)"/>
<path d="M712.93 21.5367C714.356 21.5367 715.436 22.1598 716.17 23.4061C716.916 24.6386 717.29 26.4326 717.29 28.7881C717.29 31.1436 716.916 32.9445 716.17 34.1907C715.436 35.437 714.356 36.0601 712.93 36.0601C711.517 36.0601 710.437 35.437 709.69 34.1907C708.943 32.9445 708.57 31.1436 708.57 28.7881C708.57 26.4463 708.943 24.6523 709.69 23.4061C710.437 22.1598 711.517 21.5367 712.93 21.5367ZM709.99 28.7881C709.99 30.4589 710.137 31.7668 710.43 32.7117L714.87 23.6115C714.403 22.9678 713.756 22.646 712.93 22.646C712.01 22.646 711.29 23.1527 710.77 24.1661C710.25 25.1659 709.99 26.7065 709.99 28.7881ZM712.93 34.9303C713.863 34.9303 714.59 34.4304 715.11 33.4307C715.63 32.4173 715.89 30.8698 715.89 28.7881C715.89 27.0215 715.723 25.652 715.39 24.6797L710.95 33.8621C711.43 34.5742 712.09 34.9303 712.93 34.9303Z" fill="url(#paint2_linear_175_198)"/>
<path d="M714.13 58.2428H717.07V59.3315H709.45V58.2428H712.85V46.698L709.61 48.6906L709.05 47.7662L713.05 45.219H714.13V58.2428Z" fill="url(#paint3_linear_175_198)"/>
<path d="M714.13 81.7196H717.07V82.8083H709.45V81.7196H712.85V70.1749L709.61 72.1674L709.05 71.2431L713.05 68.6958H714.13V81.7196Z" fill="url(#paint4_linear_175_198)"/>
<path d="M712.93 91.9672C714.356 91.9672 715.436 92.5903 716.17 93.8366C716.916 95.0691 717.29 96.8631 717.29 99.2186C717.29 101.574 716.916 103.375 716.17 104.621C715.436 105.867 714.356 106.491 712.93 106.491C711.517 106.491 710.437 105.867 709.69 104.621C708.943 103.375 708.57 101.574 708.57 99.2186C708.57 96.8768 708.943 95.0828 709.69 93.8366C710.437 92.5903 711.517 91.9672 712.93 91.9672ZM709.99 99.2186C709.99 100.889 710.137 102.197 710.43 103.142L714.87 94.042C714.403 93.3983 713.756 93.0765 712.93 93.0765C712.01 93.0765 711.29 93.5832 710.77 94.5966C710.25 95.5964 709.99 97.137 709.99 99.2186ZM712.93 105.361C713.863 105.361 714.59 104.861 715.11 103.861C715.63 102.848 715.89 101.3 715.89 99.2186C715.89 97.452 715.723 96.0825 715.39 95.1102L710.95 104.293C711.43 105.005 712.09 105.361 712.93 105.361Z" fill="url(#paint5_linear_175_198)"/>
<path d="M714.13 128.673H717.07V129.762H709.45V128.673H712.85V117.129L709.61 119.121L709.05 118.197L713.05 115.649H714.13V128.673Z" fill="url(#paint6_linear_175_198)"/>
<path d="M712.93 138.921C714.356 138.921 715.436 139.544 716.17 140.79C716.916 142.023 717.29 143.817 717.29 146.172C717.29 148.528 716.916 150.329 716.17 151.575C715.436 152.821 714.356 153.444 712.93 153.444C711.517 153.444 710.437 152.821 709.69 151.575C708.943 150.329 708.57 148.528 708.57 146.172C708.57 143.83 708.943 142.036 709.69 140.79C710.437 139.544 711.517 138.921 712.93 138.921ZM709.99 146.172C709.99 147.843 710.137 149.151 710.43 150.096L714.87 140.996C714.403 140.352 713.756 140.03 712.93 140.03C712.01 140.03 711.29 140.537 710.77 141.55C710.25 142.55 709.99 144.091 709.99 146.172ZM712.93 152.314C713.863 152.314 714.59 151.815 715.11 150.815C715.63 149.801 715.89 148.254 715.89 146.172C715.89 144.406 715.723 143.036 715.39 142.064L710.95 151.246C711.43 151.958 712.09 152.314 712.93 152.314Z" fill="url(#paint7_linear_175_198)"/>
<path d="M712.93 162.398C714.356 162.398 715.436 163.021 716.17 164.267C716.916 165.5 717.29 167.294 717.29 169.649C717.29 172.005 716.916 173.805 716.17 175.052C715.436 176.298 714.356 176.921 712.93 176.921C711.517 176.921 710.437 176.298 709.69 175.052C708.943 173.805 708.57 172.005 708.57 169.649C708.57 167.307 708.943 165.513 709.69 164.267C710.437 163.021 711.517 162.398 712.93 162.398ZM709.99 169.649C709.99 171.32 710.137 172.628 710.43 173.573L714.87 164.472C714.403 163.829 713.756 163.507 712.93 163.507C712.01 163.507 711.29 164.014 710.77 165.027C710.25 166.027 709.99 167.568 709.99 169.649ZM712.93 175.791C713.863 175.791 714.59 175.291 715.11 174.292C715.63 173.278 715.89 171.731 715.89 169.649C715.89 167.883 715.723 166.513 715.39 165.541L710.95 174.723C711.43 175.435 712.09 175.791 712.93 175.791Z" fill="url(#paint8_linear_175_198)"/>
<path d="M714.13 199.104H717.07V200.192H709.45V199.104H712.85V187.559L709.61 189.552L709.05 188.627L713.05 186.08H714.13V199.104Z" fill="url(#paint9_linear_175_198)"/>
<path d="M712.93 209.351C714.356 209.351 715.436 209.974 716.17 211.221C716.916 212.453 717.29 214.247 717.29 216.603C717.29 218.958 716.916 220.759 716.17 222.005C715.436 223.252 714.356 223.875 712.93 223.875C711.517 223.875 710.437 223.252 709.69 222.005C708.943 220.759 708.57 218.958 708.57 216.603C708.57 214.261 708.943 212.467 709.69 211.221C710.437 209.974 711.517 209.351 712.93 209.351ZM709.99 216.603C709.99 218.274 710.137 219.581 710.43 220.526L714.87 211.426C714.403 210.783 713.756 210.461 712.93 210.461C712.01 210.461 711.29 210.967 710.77 211.981C710.25 212.981 709.99 214.521 709.99 216.603ZM712.93 222.745C713.863 222.745 714.59 222.245 715.11 221.245C715.63 220.232 715.89 218.684 715.89 216.603C715.89 214.836 715.723 213.467 715.39 212.494L710.95 221.677C711.43 222.389 712.09 222.745 712.93 222.745Z" fill="url(#paint10_linear_175_198)"/>
<path d="M714.13 246.057H717.07V247.146H709.45V246.057H712.85V234.513L709.61 236.505L709.05 235.581L713.05 233.034H714.13V246.057Z" fill="url(#paint11_linear_175_198)"/>
<path d="M714.13 269.534H717.07V270.623H709.45V269.534H712.85V257.989L709.61 259.982L709.05 259.058L713.05 256.51H714.13V269.534Z" fill="url(#paint12_linear_175_198)"/>
<path d="M750.07 21.5367C751.497 21.5367 752.577 22.1598 753.31 23.4061C754.057 24.6386 754.43 26.4326 754.43 28.7881C754.43 31.1436 754.057 32.9445 753.31 34.1907C752.577 35.437 751.497 36.0601 750.07 36.0601C748.657 36.0601 747.577 35.437 746.83 34.1907C746.084 32.9445 745.71 31.1436 745.71 28.7881C745.71 26.4463 746.084 24.6523 746.83 23.4061C747.577 22.1598 748.657 21.5367 750.07 21.5367ZM747.13 28.7881C747.13 30.4589 747.277 31.7668 747.57 32.7117L752.01 23.6115C751.543 22.9678 750.897 22.646 750.07 22.646C749.15 22.646 748.43 23.1527 747.91 24.1661C747.39 25.1659 747.13 26.7065 747.13 28.7881ZM750.07 34.9303C751.003 34.9303 751.73 34.4304 752.25 33.4307C752.77 32.4173 753.03 30.8698 753.03 28.7881C753.03 27.0215 752.863 25.652 752.53 24.6797L748.09 33.8621C748.57 34.5742 749.23 34.9303 750.07 34.9303Z" fill="url(#paint13_linear_175_198)"/>
<path d="M751.27 58.2428H754.21V59.3315H746.59V58.2428H749.99V46.698L746.75 48.6906L746.19 47.7662L750.19 45.219H751.27V58.2428Z" fill="url(#paint14_linear_175_198)"/>
<path d="M750.07 68.4904C751.497 68.4904 752.577 69.1135 753.31 70.3597C754.057 71.5923 754.43 73.3863 754.43 75.7418C754.43 78.0973 754.057 79.8982 753.31 81.1444C752.577 82.3906 751.497 83.0138 750.07 83.0138C748.657 83.0138 747.577 82.3906 746.83 81.1444C746.084 79.8982 745.71 78.0973 745.71 75.7418C745.71 73.4 746.084 71.606 746.83 70.3597C747.577 69.1135 748.657 68.4904 750.07 68.4904ZM747.13 75.7418C747.13 77.4126 747.277 78.7204 747.57 79.6654L752.01 70.5652C751.543 69.9215 750.897 69.5997 750.07 69.5997C749.15 69.5997 748.43 70.1064 747.91 71.1198C747.39 72.1195 747.13 73.6602 747.13 75.7418ZM750.07 81.8839C751.003 81.8839 751.73 81.3841 752.25 80.3844C752.77 79.3709 753.03 77.8234 753.03 75.7418C753.03 73.9752 752.863 72.6057 752.53 71.6334L748.09 80.8157C748.57 81.5279 749.23 81.8839 750.07 81.8839Z" fill="url(#paint15_linear_175_198)"/>
<path d="M750.07 91.9672C751.497 91.9672 752.577 92.5903 753.31 93.8366C754.057 95.0691 754.43 96.8631 754.43 99.2186C754.43 101.574 754.057 103.375 753.31 104.621C752.577 105.867 751.497 106.491 750.07 106.491C748.657 106.491 747.577 105.867 746.83 104.621C746.084 103.375 745.71 101.574 745.71 99.2186C745.71 96.8768 746.084 95.0828 746.83 93.8366C747.577 92.5903 748.657 91.9672 750.07 91.9672ZM747.13 99.2186C747.13 100.889 747.277 102.197 747.57 103.142L752.01 94.042C751.543 93.3983 750.897 93.0765 750.07 93.0765C749.15 93.0765 748.43 93.5832 747.91 94.5966C747.39 95.5964 747.13 97.137 747.13 99.2186ZM750.07 105.361C751.003 105.361 751.73 104.861 752.25 103.861C752.77 102.848 753.03 101.3 753.03 99.2186C753.03 97.452 752.863 96.0825 752.53 95.1102L748.09 104.293C748.57 105.005 749.23 105.361 750.07 105.361Z" fill="url(#paint16_linear_175_198)"/>
<path d="M751.27 128.673H754.21V129.762H746.59V128.673H749.99V117.129L746.75 119.121L746.19 118.197L750.19 115.649H751.27V128.673Z" fill="url(#paint17_linear_175_198)"/>
<path d="M750.07 138.921C751.497 138.921 752.577 139.544 753.31 140.79C754.057 142.023 754.43 143.817 754.43 146.172C754.43 148.528 754.057 150.329 753.31 151.575C752.577 152.821 751.497 153.444 750.07 153.444C748.657 153.444 747.577 152.821 746.83 151.575C746.084 150.329 745.71 148.528 745.71 146.172C745.71 143.83 746.084 142.036 746.83 140.79C747.577 139.544 748.657 138.921 750.07 138.921ZM747.13 146.172C747.13 147.843 747.277 149.151 747.57 150.096L752.01 140.996C751.543 140.352 750.897 140.03 750.07 140.03C749.15 140.03 748.43 140.537 747.91 141.55C747.39 142.55 747.13 144.091 747.13 146.172ZM750.07 152.314C751.003 152.314 751.73 151.815 752.25 150.815C752.77 149.801 753.03 148.254 753.03 146.172C753.03 144.406 752.863 143.036 752.53 142.064L748.09 151.246C748.57 151.958 749.23 152.314 750.07 152.314Z" fill="url(#paint18_linear_175_198)"/>
<path d="M751.27 175.627H754.21V176.716H746.59V175.627H749.99V164.082L746.75 166.075L746.19 165.15L750.19 162.603H751.27V175.627Z" fill="url(#paint19_linear_175_198)"/>
<path d="M750.07 185.875C751.497 185.875 752.577 186.498 753.31 187.744C754.057 188.976 754.43 190.77 754.43 193.126C754.43 195.481 754.057 197.282 753.31 198.529C752.577 199.775 751.497 200.398 750.07 200.398C748.657 200.398 747.577 199.775 746.83 198.529C746.084 197.282 745.71 195.481 745.71 193.126C745.71 190.784 746.084 188.99 746.83 187.744C747.577 186.498 748.657 185.875 750.07 185.875ZM747.13 193.126C747.13 194.797 747.277 196.105 747.57 197.05L752.01 187.949C751.543 187.306 750.897 186.984 750.07 186.984C749.15 186.984 748.43 187.491 747.91 188.504C747.39 189.504 747.13 191.044 747.13 193.126ZM750.07 199.268C751.003 199.268 751.73 198.768 752.25 197.769C752.77 196.755 753.03 195.208 753.03 193.126C753.03 191.359 752.863 189.99 752.53 189.018L748.09 198.2C748.57 198.912 749.23 199.268 750.07 199.268Z" fill="url(#paint20_linear_175_198)"/>
<path d="M750.07 209.351C751.497 209.351 752.577 209.974 753.31 211.221C754.057 212.453 754.43 214.247 754.43 216.603C754.43 218.958 754.057 220.759 753.31 222.005C752.577 223.252 751.497 223.875 750.07 223.875C748.657 223.875 747.577 223.252 746.83 222.005C746.084 220.759 745.71 218.958 745.71 216.603C745.71 214.261 746.084 212.467 746.83 211.221C747.577 209.974 748.657 209.351 750.07 209.351ZM747.13 216.603C747.13 218.274 747.277 219.581 747.57 220.526L752.01 211.426C751.543 210.783 750.897 210.461 750.07 210.461C749.15 210.461 748.43 210.967 747.91 211.981C747.39 212.981 747.13 214.521 747.13 216.603ZM750.07 222.745C751.003 222.745 751.73 222.245 752.25 221.245C752.77 220.232 753.03 218.684 753.03 216.603C753.03 214.836 752.863 213.467 752.53 212.494L748.09 221.677C748.57 222.389 749.23 222.745 750.07 222.745Z" fill="url(#paint21_linear_175_198)"/>
<path d="M751.27 246.057H754.21V247.146H746.59V246.057H749.99V234.513L746.75 236.505L746.19 235.581L750.19 233.034H751.27V246.057Z" fill="url(#paint22_linear_175_198)"/>
<path d="M750.07 256.305C751.497 256.305 752.577 256.928 753.31 258.174C754.057 259.407 754.43 261.201 754.43 263.556C754.43 265.912 754.057 267.713 753.31 268.959C752.577 270.205 751.497 270.828 750.07 270.828C748.657 270.828 747.577 270.205 746.83 268.959C746.084 267.713 745.71 265.912 745.71 263.556C745.71 261.215 746.084 259.421 746.83 258.174C747.577 256.928 748.657 256.305 750.07 256.305ZM747.13 263.556C747.13 265.227 747.277 266.535 747.57 267.48L752.01 258.38C751.543 257.736 750.897 257.414 750.07 257.414C749.15 257.414 748.43 257.921 747.91 258.934C747.39 259.934 747.13 261.475 747.13 263.556ZM750.07 269.699C751.003 269.699 751.73 269.199 752.25 268.199C752.77 267.186 753.03 265.638 753.03 263.556C753.03 261.79 752.863 260.42 752.53 259.448L748.09 268.63C748.57 269.343 749.23 269.699 750.07 269.699Z" fill="url(#paint23_linear_175_198)"/>
<path d="M751.27 293.011H754.21V294.1H746.59V293.011H749.99V281.466L746.75 283.459L746.19 282.535L750.19 279.987H751.27V293.011Z" fill="url(#paint24_linear_175_198)"/>
<path d="M751.27 316.488H754.21V317.577H746.59V316.488H749.99V304.943L746.75 306.936L746.19 306.011L750.19 303.464H751.27V316.488Z" fill="url(#paint25_linear_175_198)"/>
<path d="M694.36 45.0136C695.786 45.0136 696.866 45.6367 697.599 46.8829C698.346 48.1154 698.719 49.9095 698.719 52.265C698.719 54.6205 698.346 56.4213 697.599 57.6676C696.866 58.9138 695.786 59.5369 694.36 59.5369C692.946 59.5369 691.867 58.9138 691.12 57.6676C690.373 56.4213 690 54.6205 690 52.265C690 49.9232 690.373 48.1291 691.12 46.8829C691.867 45.6367 692.946 45.0136 694.36 45.0136ZM691.42 52.265C691.42 53.9357 691.567 55.2436 691.86 56.1885L696.3 47.0883C695.833 46.4447 695.186 46.1228 694.36 46.1228C693.44 46.1228 692.72 46.6296 692.2 47.643C691.68 48.6427 691.42 50.1834 691.42 52.265ZM694.36 58.4071C695.293 58.4071 696.02 57.9072 696.54 56.9075C697.06 55.8941 697.319 54.3466 697.319 52.265C697.319 50.4983 697.153 49.1289 696.82 48.1565L692.38 57.3389C692.86 58.051 693.52 58.4071 694.36 58.4071Z" fill="url(#paint26_linear_175_198)"/>
<path d="M694.36 68.4904C695.786 68.4904 696.866 69.1135 697.599 70.3597C698.346 71.5923 698.719 73.3863 698.719 75.7418C698.719 78.0973 698.346 79.8982 697.599 81.1444C696.866 82.3906 695.786 83.0138 694.36 83.0138C692.946 83.0138 691.867 82.3906 691.12 81.1444C690.373 79.8982 690 78.0973 690 75.7418C690 73.4 690.373 71.606 691.12 70.3597C691.867 69.1135 692.946 68.4904 694.36 68.4904ZM691.42 75.7418C691.42 77.4126 691.567 78.7204 691.86 79.6654L696.3 70.5652C695.833 69.9215 695.186 69.5997 694.36 69.5997C693.44 69.5997 692.72 70.1064 692.2 71.1198C691.68 72.1195 691.42 73.6602 691.42 75.7418ZM694.36 81.8839C695.293 81.8839 696.02 81.3841 696.54 80.3844C697.06 79.3709 697.319 77.8234 697.319 75.7418C697.319 73.9752 697.153 72.6057 696.82 71.6334L692.38 80.8157C692.86 81.5279 693.52 81.8839 694.36 81.8839Z" fill="url(#paint27_linear_175_198)"/>
<path d="M695.56 105.196H698.499V106.285H690.88V105.196H694.28V93.6517L691.04 95.6443L690.48 94.7199L694.48 92.1727H695.56V105.196Z" fill="url(#paint28_linear_175_198)"/>
<path d="M694.36 115.444C695.786 115.444 696.866 116.067 697.599 117.313C698.346 118.546 698.719 120.34 698.719 122.695C698.719 125.051 698.346 126.852 697.599 128.098C696.866 129.344 695.786 129.967 694.36 129.967C692.946 129.967 691.867 129.344 691.12 128.098C690.373 126.852 690 125.051 690 122.695C690 120.354 690.373 118.56 691.12 117.313C691.867 116.067 692.946 115.444 694.36 115.444ZM691.42 122.695C691.42 124.366 691.567 125.674 691.86 126.619L696.3 117.519C695.833 116.875 695.186 116.553 694.36 116.553C693.44 116.553 692.72 117.06 692.2 118.073C691.68 119.073 691.42 120.614 691.42 122.695ZM694.36 128.838C695.293 128.838 696.02 128.338 696.54 127.338C697.06 126.325 697.319 124.777 697.319 122.695C697.319 120.929 697.153 119.559 696.82 118.587L692.38 127.769C692.86 128.482 693.52 128.838 694.36 128.838Z" fill="url(#paint29_linear_175_198)"/>
<path d="M695.56 152.15H698.499V153.239H690.88V152.15H694.28V140.605L691.04 142.598L690.48 141.674L694.48 139.126H695.56V152.15Z" fill="url(#paint30_linear_175_198)"/>
<path d="M695.56 175.627H698.499V176.716H690.88V175.627H694.28V164.082L691.04 166.075L690.48 165.15L694.48 162.603H695.56V175.627Z" fill="url(#paint31_linear_175_198)"/>
<path d="M732.7 11.2891H735.64V12.3778H728.02V11.2891H731.42V-0.255635L728.18 1.73696L727.62 0.812559L731.62 -1.73468H732.7V11.2891Z" fill="url(#paint32_linear_175_198)"/>
<path d="M731.5 21.5367C732.927 21.5367 734.006 22.1598 734.74 23.4061C735.486 24.6386 735.86 26.4326 735.86 28.7881C735.86 31.1436 735.486 32.9445 734.74 34.1907C734.006 35.437 732.927 36.0601 731.5 36.0601C730.087 36.0601 729.007 35.437 728.26 34.1907C727.514 32.9445 727.14 31.1436 727.14 28.7881C727.14 26.4463 727.514 24.6523 728.26 23.4061C729.007 22.1598 730.087 21.5367 731.5 21.5367ZM728.56 28.7881C728.56 30.4589 728.707 31.7668 729 32.7117L733.44 23.6115C732.973 22.9678 732.327 22.646 731.5 22.646C730.58 22.646 729.86 23.1527 729.34 24.1661C728.82 25.1659 728.56 26.7065 728.56 28.7881ZM731.5 34.9303C732.433 34.9303 733.16 34.4304 733.68 33.4307C734.2 32.4173 734.46 30.8698 734.46 28.7881C734.46 27.0215 734.293 25.652 733.96 24.6797L729.52 33.8621C730 34.5742 730.66 34.9303 731.5 34.9303Z" fill="url(#paint33_linear_175_198)"/>
<path d="M732.7 58.2428H735.64V59.3315H728.02V58.2428H731.42V46.698L728.18 48.6906L727.62 47.7662L731.62 45.219H732.7V58.2428Z" fill="url(#paint34_linear_175_198)"/>
<path d="M732.7 81.7196H735.64V82.8083H728.02V81.7196H731.42V70.1749L728.18 72.1674L727.62 71.2431L731.62 68.6958H732.7V81.7196Z" fill="url(#paint35_linear_175_198)"/>
<path d="M731.5 91.9672C732.927 91.9672 734.006 92.5903 734.74 93.8366C735.486 95.0691 735.86 96.8631 735.86 99.2186C735.86 101.574 735.486 103.375 734.74 104.621C734.006 105.867 732.927 106.491 731.5 106.491C730.087 106.491 729.007 105.867 728.26 104.621C727.514 103.375 727.14 101.574 727.14 99.2186C727.14 96.8768 727.514 95.0828 728.26 93.8366C729.007 92.5903 730.087 91.9672 731.5 91.9672ZM728.56 99.2186C728.56 100.889 728.707 102.197 729 103.142L733.44 94.042C732.973 93.3983 732.327 93.0765 731.5 93.0765C730.58 93.0765 729.86 93.5832 729.34 94.5966C728.82 95.5964 728.56 97.137 728.56 99.2186ZM731.5 105.361C732.433 105.361 733.16 104.861 733.68 103.861C734.2 102.848 734.46 101.3 734.46 99.2186C734.46 97.452 734.293 96.0825 733.96 95.1102L729.52 104.293C730 105.005 730.66 105.361 731.5 105.361Z" fill="url(#paint36_linear_175_198)"/>
<path d="M732.7 128.673H735.64V129.762H728.02V128.673H731.42V117.129L728.18 119.121L727.62 118.197L731.62 115.649H732.7V128.673Z" fill="url(#paint37_linear_175_198)"/>
<path d="M732.7 152.15H735.64V153.239H728.02V152.15H731.42V140.605L728.18 142.598L727.62 141.674L731.62 139.126H732.7V152.15Z" fill="url(#paint38_linear_175_198)"/>
<path d="M731.5 162.398C732.927 162.398 734.006 163.021 734.74 164.267C735.486 165.5 735.86 167.294 735.86 169.649C735.86 172.005 735.486 173.805 734.74 175.052C734.006 176.298 732.927 176.921 731.5 176.921C730.087 176.921 729.007 176.298 728.26 175.052C727.514 173.805 727.14 172.005 727.14 169.649C727.14 167.307 727.514 165.513 728.26 164.267C729.007 163.021 730.087 162.398 731.5 162.398ZM728.56 169.649C728.56 171.32 728.707 172.628 729 173.573L733.44 164.472C732.973 163.829 732.327 163.507 731.5 163.507C730.58 163.507 729.86 164.014 729.34 165.027C728.82 166.027 728.56 167.568 728.56 169.649ZM731.5 175.791C732.433 175.791 733.16 175.291 733.68 174.292C734.2 173.278 734.46 171.731 734.46 169.649C734.46 167.883 734.293 166.513 733.96 165.541L729.52 174.723C730 175.435 730.66 175.791 731.5 175.791Z" fill="url(#paint39_linear_175_198)"/>
<path d="M732.7 199.104H735.64V200.192H728.02V199.104H731.42V187.559L728.18 189.552L727.62 188.627L731.62 186.08H732.7V199.104Z" fill="url(#paint40_linear_175_198)"/>
<path d="M731.5 209.351C732.927 209.351 734.006 209.974 734.74 211.221C735.486 212.453 735.86 214.247 735.86 216.603C735.86 218.958 735.486 220.759 734.74 222.005C734.006 223.252 732.927 223.875 731.5 223.875C730.087 223.875 729.007 223.252 728.26 222.005C727.514 220.759 727.14 218.958 727.14 216.603C727.14 214.261 727.514 212.467 728.26 211.221C729.007 209.974 730.087 209.351 731.5 209.351ZM728.56 216.603C728.56 218.274 728.707 219.581 729 220.526L733.44 211.426C732.973 210.783 732.327 210.461 731.5 210.461C730.58 210.461 729.86 210.967 729.34 211.981C728.82 212.981 728.56 214.521 728.56 216.603ZM731.5 222.745C732.433 222.745 733.16 222.245 733.68 221.245C734.2 220.232 734.46 218.684 734.46 216.603C734.46 214.836 734.293 213.467 733.96 212.494L729.52 221.677C730 222.389 730.66 222.745 731.5 222.745Z" fill="url(#paint41_linear_175_198)"/>
<path d="M768.64 -1.9401C770.067 -1.9401 771.147 -1.31699 771.88 -0.0707564C772.627 1.16178 773 2.9558 773 5.31131C773 7.66681 772.627 9.46768 771.88 10.7139C771.147 11.9601 770.067 12.5833 768.64 12.5833C767.227 12.5833 766.147 11.9601 765.401 10.7139C764.654 9.46768 764.281 7.66681 764.281 5.31131C764.281 2.96949 764.654 1.17547 765.401 -0.0707564C766.147 -1.31699 767.227 -1.9401 768.64 -1.9401ZM765.7 5.31131C765.7 6.98207 765.847 8.28993 766.14 9.23487L770.58 0.134665C770.114 -0.508991 769.467 -0.830818 768.64 -0.830818C767.72 -0.830818 767 -0.324112 766.48 0.689305C765.96 1.68903 765.7 3.22969 765.7 5.31131ZM768.64 11.4534C769.574 11.4534 770.3 10.9536 770.82 9.95385C771.34 8.94044 771.6 7.39292 771.6 5.31131C771.6 3.54467 771.433 2.17519 771.1 1.20286L766.66 10.3852C767.14 11.0974 767.8 11.4534 768.64 11.4534Z" fill="url(#paint42_linear_175_198)"/>
<path d="M769.84 34.7659H772.78V35.8547H765.161V34.7659H768.56V23.2212L765.321 25.2138L764.761 24.2894L768.76 21.7422H769.84V34.7659Z" fill="url(#paint43_linear_175_198)"/>
<path d="M769.84 58.2428H772.78V59.3315H765.161V58.2428H768.56V46.698L765.321 48.6906L764.761 47.7662L768.76 45.219H769.84V58.2428Z" fill="url(#paint44_linear_175_198)"/>
<path d="M768.64 68.4904C770.067 68.4904 771.147 69.1135 771.88 70.3597C772.627 71.5923 773 73.3863 773 75.7418C773 78.0973 772.627 79.8982 771.88 81.1444C771.147 82.3906 770.067 83.0138 768.64 83.0138C767.227 83.0138 766.147 82.3906 765.401 81.1444C764.654 79.8982 764.281 78.0973 764.281 75.7418C764.281 73.4 764.654 71.606 765.401 70.3597C766.147 69.1135 767.227 68.4904 768.64 68.4904ZM765.7 75.7418C765.7 77.4126 765.847 78.7204 766.14 79.6654L770.58 70.5652C770.114 69.9215 769.467 69.5997 768.64 69.5997C767.72 69.5997 767 70.1064 766.48 71.1198C765.96 72.1195 765.7 73.6602 765.7 75.7418ZM768.64 81.8839C769.574 81.8839 770.3 81.3841 770.82 80.3844C771.34 79.3709 771.6 77.8234 771.6 75.7418C771.6 73.9752 771.433 72.6057 771.1 71.6334L766.66 80.8157C767.14 81.5279 767.8 81.8839 768.64 81.8839Z" fill="url(#paint45_linear_175_198)"/>
<path d="M768.64 91.9672C770.067 91.9672 771.147 92.5903 771.88 93.8366C772.627 95.0691 773 96.8631 773 99.2186C773 101.574 772.627 103.375 771.88 104.621C771.147 105.867 770.067 106.491 768.64 106.491C767.227 106.491 766.147 105.867 765.401 104.621C764.654 103.375 764.281 101.574 764.281 99.2186C764.281 96.8768 764.654 95.0828 765.401 93.8366C766.147 92.5903 767.227 91.9672 768.64 91.9672ZM765.7 99.2186C765.7 100.889 765.847 102.197 766.14 103.142L770.58 94.042C770.114 93.3983 769.467 93.0765 768.64 93.0765C767.72 93.0765 767 93.5832 766.48 94.5966C765.96 95.5964 765.7 97.137 765.7 99.2186ZM768.64 105.361C769.574 105.361 770.3 104.861 770.82 103.861C771.34 102.848 771.6 101.3 771.6 99.2186C771.6 97.452 771.433 96.0825 771.1 95.1102L766.66 104.293C767.14 105.005 767.8 105.361 768.64 105.361Z" fill="url(#paint46_linear_175_198)"/>
</g>
<defs>
<filter id="filter0_f_175_198" x="-765.19" y="-720.19" width="2141.38" height="1521.39" filterUnits="userSpaceOnUse" color-interpolation-filters="sRGB">
<feFlood flood-opacity="0" result="BackgroundImageFix"/>
<feBlend mode="normal" in="SourceGraphic" in2="BackgroundImageFix" result="shape"/>
<feGaussianBlur stdDeviation="200.095" result="effect1_foregroundBlur_175_198"/>
</filter>
<linearGradient id="paint0_linear_175_198" x1="731.5" y1="-25.4169" x2="731.5" y2="282.369" gradientUnits="userSpaceOnUse">
<stop stop-color="#F7DD43"/>
<stop offset="1" stop-color="#F7DD43" stop-opacity="0"/>
</linearGradient>
<linearGradient id="paint1_linear_175_198" x1="731.5" y1="-25.4169" x2="731.5" y2="282.369" gradientUnits="userSpaceOnUse">
<stop stop-color="#F7DD43"/>
<stop offset="1" stop-color="#F7DD43" stop-opacity="0"/>
</linearGradient>
<linearGradient id="paint2_linear_175_198" x1="731.5" y1="-25.4169" x2="731.5" y2="282.369" gradientUnits="userSpaceOnUse">
<stop stop-color="#F7DD43"/>
<stop offset="1" stop-color="#F7DD43" stop-opacity="0"/>
</linearGradient>
<linearGradient id="paint3_linear_175_198" x1="731.5" y1="-25.4169" x2="731.5" y2="282.369" gradientUnits="userSpaceOnUse">
<stop stop-color="#F7DD43"/>
<stop offset="1" stop-color="#F7DD43" stop-opacity="0"/>
</linearGradient>
<linearGradient id="paint4_linear_175_198" x1="731.5" y1="-25.4169" x2="731.5" y2="282.369" gradientUnits="userSpaceOnUse">
<stop stop-color="#F7DD43"/>
<stop offset="1" stop-color="#F7DD43" stop-opacity="0"/>
</linearGradient>
<linearGradient id="paint5_linear_175_198" x1="731.5" y1="-25.4169" x2="731.5" y2="282.369" gradientUnits="userSpaceOnUse">
<stop stop-color="#F7DD43"/>
<stop offset="1" stop-color="#F7DD43" stop-opacity="0"/>
</linearGradient>
<linearGradient id="paint6_linear_175_198" x1="731.5" y1="-25.4169" x2="731.5" y2="282.369" gradientUnits="userSpaceOnUse">
<stop stop-color="#F7DD43"/>
<stop offset="1" stop-color="#F7DD43" stop-opacity="0"/>
</linearGradient>
<linearGradient id="paint7_linear_175_198" x1="731.5" y1="-25.4169" x2="731.5" y2="282.369" gradientUnits="userSpaceOnUse">
<stop stop-color="#F7DD43"/>
<stop offset="1" stop-color="#F7DD43" stop-opacity="0"/>
</linearGradient>
<linearGradient id="paint8_linear_175_198" x1="731.5" y1="-25.4169" x2="731.5" y2="282.369" gradientUnits="userSpaceOnUse">
<stop stop-color="#F7DD43"/>
<stop offset="1" stop-color="#F7DD43" stop-opacity="0"/>
</linearGradient>
<linearGradient id="paint9_linear_175_198" x1="731.5" y1="-25.4169" x2="731.5" y2="282.369" gradientUnits="userSpaceOnUse">
<stop stop-color="#F7DD43"/>
<stop offset="1" stop-color="#F7DD43" stop-opacity="0"/>
</linearGradient>
<linearGradient id="paint10_linear_175_198" x1="731.5" y1="-25.4169" x2="731.5" y2="282.369" gradientUnits="userSpaceOnUse">
<stop stop-color="#F7DD43"/>
<stop offset="1" stop-color="#F7DD43" stop-opacity="0"/>
</linearGradient>
<linearGradient id="paint11_linear_175_198" x1="731.5" y1="-25.4169" x2="731.5" y2="282.369" gradientUnits="userSpaceOnUse">
<stop stop-color="#F7DD43"/>
<stop offset="1" stop-color="#F7DD43" stop-opacity="0"/>
</linearGradient>
<linearGradient id="paint12_linear_175_198" x1="731.5" y1="-25.4169" x2="731.5" y2="282.369" gradientUnits="userSpaceOnUse">
<stop stop-color="#F7DD43"/>
<stop offset="1" stop-color="#F7DD43" stop-opacity="0"/>
</linearGradient>
<linearGradient id="paint13_linear_175_198" x1="731.5" y1="-25.4169" x2="731.5" y2="282.369" gradientUnits="userSpaceOnUse">
<stop stop-color="#F7DD43"/>
<stop offset="1" stop-color="#F7DD43" stop-opacity="0"/>
</linearGradient>
<linearGradient id="paint14_linear_175_198" x1="731.5" y1="-25.4169" x2="731.5" y2="282.369" gradientUnits="userSpaceOnUse">
<stop stop-color="#F7DD43"/>
<stop offset="1" stop-color="#F7DD43" stop-opacity="0"/>
</linearGradient>
<linearGradient id="paint15_linear_175_198" x1="731.5" y1="-25.4169" x2="731.5" y2="282.369" gradientUnits="userSpaceOnUse">
<stop stop-color="#F7DD43"/>
<stop offset="1" stop-color="#F7DD43" stop-opacity="0"/>
</linearGradient>
<linearGradient id="paint16_linear_175_198" x1="731.5" y1="-25.4169" x2="731.5" y2="282.369" gradientUnits="userSpaceOnUse">
<stop stop-color="#F7DD43"/>
<stop offset="1" stop-color="#F7DD43" stop-opacity="0"/>
</linearGradient>
<linearGradient id="paint17_linear_175_198" x1="731.5" y1="-25.4169" x2="731.5" y2="282.369" gradientUnits="userSpaceOnUse">
<stop stop-color="#F7DD43"/>
<stop offset="1" stop-color="#F7DD43" stop-opacity="0"/>
</linearGradient>
<linearGradient id="paint18_linear_175_198" x1="731.5" y1="-25.4169" x2="731.5" y2="282.369" gradientUnits="userSpaceOnUse">
<stop stop-color="#F7DD43"/>
<stop offset="1" stop-color="#F7DD43" stop-opacity="0"/>
</linearGradient>
<linearGradient id="paint19_linear_175_198" x1="731.5" y1="-25.4169" x2="731.5" y2="282.369" gradientUnits="userSpaceOnUse">
<stop stop-color="#F7DD43"/>
<stop offset="1" stop-color="#F7DD43" stop-opacity="0"/>
</linearGradient>
<linearGradient id="paint20_linear_175_198" x1="731.5" y1="-25.4169" x2="731.5" y2="282.369" gradientUnits="userSpaceOnUse">
<stop stop-color="#F7DD43"/>
<stop offset="1" stop-color="#F7DD43" stop-opacity="0"/>
</linearGradient>
<linearGradient id="paint21_linear_175_198" x1="731.5" y1="-25.4169" x2="731.5" y2="282.369" gradientUnits="userSpaceOnUse">
<stop stop-color="#F7DD43"/>
<stop offset="1" stop-color="#F7DD43" stop-opacity="0"/>
</linearGradient>
<linearGradient id="paint22_linear_175_198" x1="731.5" y1="-25.4169" x2="731.5" y2="282.369" gradientUnits="userSpaceOnUse">
<stop stop-color="#F7DD43"/>
<stop offset="1" stop-color="#F7DD43" stop-opacity="0"/>
</linearGradient>
<linearGradient id="paint23_linear_175_198" x1="731.5" y1="-25.4169" x2="731.5" y2="282.369" gradientUnits="userSpaceOnUse">
<stop stop-color="#F7DD43"/>
<stop offset="1" stop-color="#F7DD43" stop-opacity="0"/>
</linearGradient>
<linearGradient id="paint24_linear_175_198" x1="731.5" y1="-25.4169" x2="731.5" y2="282.369" gradientUnits="userSpaceOnUse">
<stop stop-color="#F7DD43"/>
<stop offset="1" stop-color="#F7DD43" stop-opacity="0"/>
</linearGradient>
<linearGradient id="paint25_linear_175_198" x1="731.5" y1="-25.4169" x2="731.5" y2="282.369" gradientUnits="userSpaceOnUse">
<stop stop-color="#F7DD43"/>
<stop offset="1" stop-color="#F7DD43" stop-opacity="0"/>
</linearGradient>
<linearGradient id="paint26_linear_175_198" x1="731.5" y1="-25.4169" x2="731.5" y2="282.369" gradientUnits="userSpaceOnUse">
<stop stop-color="#F7DD43"/>
<stop offset="1" stop-color="#F7DD43" stop-opacity="0"/>
</linearGradient>
<linearGradient id="paint27_linear_175_198" x1="731.5" y1="-25.4169" x2="731.5" y2="282.369" gradientUnits="userSpaceOnUse">
<stop stop-color="#F7DD43"/>
<stop offset="1" stop-color="#F7DD43" stop-opacity="0"/>
</linearGradient>
<linearGradient id="paint28_linear_175_198" x1="731.5" y1="-25.4169" x2="731.5" y2="282.369" gradientUnits="userSpaceOnUse">
<stop stop-color="#F7DD43"/>
<stop offset="1" stop-color="#F7DD43" stop-opacity="0"/>
</linearGradient>
<linearGradient id="paint29_linear_175_198" x1="731.5" y1="-25.4169" x2="731.5" y2="282.369" gradientUnits="userSpaceOnUse">
<stop stop-color="#F7DD43"/>
<stop offset="1" stop-color="#F7DD43" stop-opacity="0"/>
</linearGradient>
<linearGradient id="paint30_linear_175_198" x1="731.5" y1="-25.4169" x2="731.5" y2="282.369" gradientUnits="userSpaceOnUse">
<stop stop-color="#F7DD43"/>
<stop offset="1" stop-color="#F7DD43" stop-opacity="0"/>
</linearGradient>
<linearGradient id="paint31_linear_175_198" x1="731.5" y1="-25.4169" x2="731.5" y2="282.369" gradientUnits="userSpaceOnUse">
<stop stop-color="#F7DD43"/>
<stop offset="1" stop-color="#F7DD43" stop-opacity="0"/>
</linearGradient>
<linearGradient id="paint32_linear_175_198" x1="731.5" y1="-25.4169" x2="731.5" y2="282.369" gradientUnits="userSpaceOnUse">
<stop stop-color="#F7DD43"/>
<stop offset="1" stop-color="#F7DD43" stop-opacity="0"/>
</linearGradient>
<linearGradient id="paint33_linear_175_198" x1="731.5" y1="-25.4169" x2="731.5" y2="282.369" gradientUnits="userSpaceOnUse">
<stop stop-color="#F7DD43"/>
<stop offset="1" stop-color="#F7DD43" stop-opacity="0"/>
</linearGradient>
<linearGradient id="paint34_linear_175_198" x1="731.5" y1="-25.4169" x2="731.5" y2="282.369" gradientUnits="userSpaceOnUse">
<stop stop-color="#F7DD43"/>
<stop offset="1" stop-color="#F7DD43" stop-opacity="0"/>
</linearGradient>
<linearGradient id="paint35_linear_175_198" x1="731.5" y1="-25.4169" x2="731.5" y2="282.369" gradientUnits="userSpaceOnUse">
<stop stop-color="#F7DD43"/>
<stop offset="1" stop-color="#F7DD43" stop-opacity="0"/>
</linearGradient>
<linearGradient id="paint36_linear_175_198" x1="731.5" y1="-25.4169" x2="731.5" y2="282.369" gradientUnits="userSpaceOnUse">
<stop stop-color="#F7DD43"/>
<stop offset="1" stop-color="#F7DD43" stop-opacity="0"/>
</linearGradient>
<linearGradient id="paint37_linear_175_198" x1="731.5" y1="-25.4169" x2="731.5" y2="282.369" gradientUnits="userSpaceOnUse">
<stop stop-color="#F7DD43"/>
<stop offset="1" stop-color="#F7DD43" stop-opacity="0"/>
</linearGradient>
<linearGradient id="paint38_linear_175_198" x1="731.5" y1="-25.4169" x2="731.5" y2="282.369" gradientUnits="userSpaceOnUse">
<stop stop-color="#F7DD43"/>
<stop offset="1" stop-color="#F7DD43" stop-opacity="0"/>
</linearGradient>
<linearGradient id="paint39_linear_175_198" x1="731.5" y1="-25.4169" x2="731.5" y2="282.369" gradientUnits="userSpaceOnUse">
<stop stop-color="#F7DD43"/>
<stop offset="1" stop-color="#F7DD43" stop-opacity="0"/>
</linearGradient>
<linearGradient id="paint40_linear_175_198" x1="731.5" y1="-25.4169" x2="731.5" y2="282.369" gradientUnits="userSpaceOnUse">
<stop stop-color="#F7DD43"/>
<stop offset="1" stop-color="#F7DD43" stop-opacity="0"/>
</linearGradient>
<linearGradient id="paint41_linear_175_198" x1="731.5" y1="-25.4169" x2="731.5" y2="282.369" gradientUnits="userSpaceOnUse">
<stop stop-color="#F7DD43"/>
<stop offset="1" stop-color="#F7DD43" stop-opacity="0"/>
</linearGradient>
<linearGradient id="paint42_linear_175_198" x1="731.5" y1="-25.4169" x2="731.5" y2="282.369" gradientUnits="userSpaceOnUse">
<stop stop-color="#F7DD43"/>
<stop offset="1" stop-color="#F7DD43" stop-opacity="0"/>
</linearGradient>
<linearGradient id="paint43_linear_175_198" x1="731.5" y1="-25.4169" x2="731.5" y2="282.369" gradientUnits="userSpaceOnUse">
<stop stop-color="#F7DD43"/>
<stop offset="1" stop-color="#F7DD43" stop-opacity="0"/>
</linearGradient>
<linearGradient id="paint44_linear_175_198" x1="731.5" y1="-25.4169" x2="731.5" y2="282.369" gradientUnits="userSpaceOnUse">
<stop stop-color="#F7DD43"/>
<stop offset="1" stop-color="#F7DD43" stop-opacity="0"/>
</linearGradient>
<linearGradient id="paint45_linear_175_198" x1="731.5" y1="-25.4169" x2="731.5" y2="282.369" gradientUnits="userSpaceOnUse">
<stop stop-color="#F7DD43"/>
<stop offset="1" stop-color="#F7DD43" stop-opacity="0"/>
</linearGradient>
<linearGradient id="paint46_linear_175_198" x1="731.5" y1="-25.4169" x2="731.5" y2="282.369" gradientUnits="userSpaceOnUse">
<stop stop-color="#F7DD43"/>
<stop offset="1" stop-color="#F7DD43" stop-opacity="0"/>
</linearGradient>
</defs>
</svg>
